<svg width="641" height="223" fill="none" xmlns="http://www.w3.org/2000/svg"><path d="M53.57 45.5c0-1.53.77-2.3 2.3-2.3h12.1c1.53 0 2.3.77 2.3 2.3v96.2c0 1.53-.77 2.3-2.3 2.3h-12.1c-1.53 0-2.3-.77-2.3-2.3v-3.75c0-.38-.15-.62-.43-.72-.2-.1-.39.05-.58.43-4.13 5-9.6 7.5-16.42 7.5-6.72 0-12.48-1.78-17.28-5.34-4.8-3.64-8.25-8.59-10.36-14.83a58.64 58.64 0 0 1-2.6-18c0-6.81.82-12.67 2.45-17.57 2.11-6.33 5.52-11.28 10.23-14.83 4.7-3.55 10.56-5.33 17.56-5.33 6.72 0 12.2 2.36 16.42 7.06.2.29.38.43.58.43.28-.1.43-.33.43-.72V45.5zm-3.6 78.34c2.2-3.74 3.31-9.31 3.31-16.7 0-7.5-1.2-13.2-3.6-17.14-2.6-4.22-6.2-6.34-10.8-6.34-5 0-8.83 2.02-11.52 6.05-2.78 4.23-4.18 10.08-4.18 17.57 0 6.91 1.16 12.38 3.46 16.42 2.5 4.6 6.53 6.9 12.1 6.9 4.8 0 8.54-2.25 11.23-6.76zm56.27-54.58c6.05 0 11.38 1.06 15.98 3.17 4.7 2.11 8.3 5.04 10.8 8.79a21.65 21.65 0 0 1 3.75 12.52v47.96c0 1.53-.77 2.3-2.3 2.3h-12.1c-1.54 0-2.3-.77-2.3-2.3v-3.6c0-.39-.1-.58-.3-.58-.19-.1-.43-.05-.71.14-5.19 5-12.1 7.5-20.74 7.5-7.1 0-12.96-1.83-17.57-5.48-4.51-3.65-6.77-9.07-6.77-16.27 0-7.49 2.6-13.3 7.78-17.43 5.28-4.22 12.67-6.33 22.18-6.33h15.26c.58 0 .86-.29.86-.87v-3.3c0-3.75-1.15-6.63-3.45-8.65-2.2-2.11-5.52-3.17-9.94-3.17-3.36 0-6.14.63-8.35 1.88a8.87 8.87 0 0 0-4.46 4.9c-.39 1.34-1.25 1.96-2.6 1.86L78.3 90.72a3.64 3.64 0 0 1-1.72-.58 1.37 1.37 0 0 1-.44-1.3c.87-5.75 4.04-10.46 9.5-14.1 5.58-3.65 12.44-5.48 20.6-5.48zm-3.31 62.64c4.7 0 8.73-1.24 12.1-3.74 3.36-2.5 5.03-5.66 5.03-9.5v-6.63c0-.57-.28-.86-.86-.86h-11.95c-5.09 0-9.12.96-12.1 2.88a9.21 9.21 0 0 0-4.46 8.2c0 3.08 1.15 5.48 3.45 7.2 2.3 1.64 5.24 2.45 8.79 2.45zm75.66-62.64c7.88 0 14.12 2.3 18.72 6.92 4.7 4.6 7.06 10.9 7.06 18.86v46.66c0 1.53-.77 2.3-2.3 2.3h-12.1c-1.53 0-2.3-.77-2.3-2.3V98.5c0-4.42-1.3-7.97-3.9-10.66-2.49-2.78-5.8-4.18-9.93-4.18s-7.49 1.35-10.08 4.04c-2.5 2.68-3.74 6.24-3.74 10.65v43.35c0 1.53-.77 2.3-2.3 2.3h-12.1c-1.54 0-2.3-.77-2.3-2.3V72.72c0-1.54.76-2.3 2.3-2.3h12.1c1.53 0 2.3.76 2.3 2.3v3.89c0 .38.1.62.29.72.19.1.38 0 .57-.29 4.03-5.18 9.94-7.78 17.72-7.78zm63.65 75.9c-7.4 0-13.78-1.88-19.16-5.62a29.88 29.88 0 0 1-11.23-15.41c-1.53-4.32-2.3-10.08-2.3-17.28 0-6.91.76-12.58 2.3-17a27.72 27.72 0 0 1 11.09-14.97c5.47-3.74 11.9-5.62 19.3-5.62 7.48 0 14.01 1.88 19.58 5.62 5.57 3.74 9.26 8.45 11.09 14.11.28.87.57 2.21.86 4.03v.58c0 1.06-.62 1.73-1.87 2.02l-11.95 1.87h-.58c-1.06 0-1.73-.58-2.01-1.73l-.44-1.87a12.1 12.1 0 0 0-5.04-7.2 15.62 15.62 0 0 0-9.64-3.03c-3.65 0-6.77.96-9.37 2.88a13.33 13.33 0 0 0-5.03 7.64c-.97 3.07-1.44 7.34-1.44 12.81 0 5.28.43 9.55 1.3 12.82a15.54 15.54 0 0 0 5.18 8.06c2.5 1.92 5.61 2.88 9.36 2.88 3.64 0 6.76-.91 9.35-2.73a12.8 12.8 0 0 0 5.19-7.5l.14-.71c.1-.48.39-.96.87-1.44.57-.48 1.2-.67 1.87-.58l11.95 1.87c1.25.3 1.87.96 1.87 2.02 0 .58-.19 1.73-.57 3.46a25.97 25.97 0 0 1-11.1 14.68c-5.56 3.56-12.09 5.33-19.57 5.33zm68.02-14.12c3.55-.1 6.62-.82 9.21-2.16a17.92 17.92 0 0 0 6.48-5.76c.48-.77 1.1-1.15 1.87-1.15.48 0 .92.14 1.3.43l6.91 5.47c.67.67 1.01 1.3 1.01 1.87 0 .39-.14.82-.43 1.3a28.95 28.95 0 0 1-11.38 10.37c-4.8 2.5-10.32 3.74-16.56 3.74-7.58 0-13.97-1.77-19.15-5.33-5.09-3.64-8.78-8.68-11.09-15.12-1.92-5.28-2.88-11.23-2.88-17.85 0-6.63.53-11.71 1.59-15.27 1.82-6.81 5.42-12.24 10.8-16.27 5.37-4.03 11.9-6.05 19.58-6.05 17.95 0 28.46 9.84 31.54 29.52.48 3.17.81 7.1 1 11.81 0 1.54-.76 2.3-2.3 2.3h-44.64c-.58 0-.86.3-.86.87 0 2.6.28 4.7.86 6.34a14.24 14.24 0 0 0 6.05 8.06c2.97 1.92 6.67 2.88 11.09 2.88zm-2.88-47.38c-3.65 0-6.68.92-9.08 2.74a13.17 13.17 0 0 0-4.75 7.34 21.1 21.1 0 0 0-1.15 6.05c-.1.58.14.87.72.87h28.94c.58 0 .87-.3.87-.87a43.4 43.4 0 0 0-.87-5.18c-.86-3.36-2.59-6-5.18-7.92-2.5-2.02-5.66-3.03-9.5-3.03z" fill="#04F4BA"/><path d="M380.53 69.26c7.87 0 14.1 2.3 18.72 6.92 4.7 4.6 7.05 10.9 7.05 18.86v46.66c0 1.53-.76 2.3-2.3 2.3h-12.1c-1.53 0-2.3-.77-2.3-2.3V98.5c0-4.42-1.3-7.97-3.89-10.66-2.5-2.78-5.8-4.18-9.94-4.18-4.12 0-7.48 1.35-10.07 4.04-2.5 2.68-3.75 6.24-3.75 10.65v43.35c0 1.53-.77 2.3-2.3 2.3h-12.1c-1.54 0-2.3-.77-2.3-2.3V72.72c0-1.54.76-2.3 2.3-2.3h12.1c1.53 0 2.3.76 2.3 2.3v3.89c0 .38.1.62.29.72.2.1.38 0 .57-.29 4.04-5.18 9.94-7.78 17.72-7.78zm78.04 3.46c0-1.54.76-2.3 2.3-2.3h12.1c1.53 0 2.3.76 2.3 2.3v66.38c0 12-3.45 20.6-10.37 25.78-6.9 5.18-15.93 7.78-27.07 7.78-2.69 0-5.42-.15-8.2-.44-1.35-.1-2.02-.96-2.02-2.59l.43-10.65c0-.68.24-1.2.72-1.59a2.4 2.4 0 0 1 1.87-.43c3.26.2 5.52.29 6.77.29 7.3 0 12.62-1.44 15.98-4.32 3.46-2.79 5.19-7.54 5.19-14.26v-.86c0-.39-.1-.63-.3-.72-.18-.1-.42 0-.71.29-3.94 4.12-9.46 6.19-16.56 6.19a32.23 32.23 0 0 1-17.14-4.75c-5.18-3.17-8.78-8.02-10.8-14.55-1.25-4.51-1.87-10.32-1.87-17.42 0-7.97.77-14.07 2.3-18.29a27.44 27.44 0 0 1 9.94-13.97c4.7-3.55 10.22-5.33 16.56-5.33 7.4 0 13.25 2.16 17.57 6.48.29.3.53.39.72.3.2-.1.29-.34.29-.73v-2.59zm-1.01 46.8c.38-1.44.62-2.98.72-4.6.2-1.74.29-4.47.29-8.22 0-3.64-.1-6.24-.3-7.77-.09-1.63-.38-3.22-.85-4.75a13.55 13.55 0 0 0-4.76-7.64c-2.3-1.92-5.28-2.88-8.93-2.88-3.45 0-6.38.96-8.78 2.88a15.98 15.98 0 0 0-5.18 7.64c-1.15 2.68-1.73 6.9-1.73 12.67 0 5.95.48 10.13 1.44 12.53a15.57 15.57 0 0 0 5.18 7.63 15.05 15.05 0 0 0 9.22 2.88c3.74 0 6.77-.96 9.07-2.88a13.83 13.83 0 0 0 4.6-7.49zm34.39-58.32c-3.17 0-5.76-.96-7.78-2.88a10.35 10.35 0 0 1-3.02-7.63c0-3.07 1-5.57 3.02-7.49s4.61-2.88 7.78-2.88 5.71.96 7.63 2.88c2.02 1.92 3.03 4.42 3.03 7.49 0 3.07-1.01 5.61-3.03 7.63-1.92 1.92-4.46 2.88-7.63 2.88zM485.9 144c-1.53 0-2.3-.77-2.3-2.3V72.72c0-1.54.77-2.3 2.3-2.3H498c1.53 0 2.3.76 2.3 2.3v68.98c0 1.53-.77 2.3-2.3 2.3h-12.1zm58.45-74.74c7.87 0 14.11 2.3 18.72 6.92 4.7 4.6 7.05 10.9 7.05 18.86v46.66c0 1.53-.76 2.3-2.3 2.3h-12.1c-1.53 0-2.3-.77-2.3-2.3V98.5c0-4.42-1.3-7.97-3.89-10.66-2.5-2.78-5.8-4.18-9.93-4.18s-7.5 1.35-10.08 4.04c-2.5 2.68-3.75 6.24-3.75 10.65v43.35c0 1.53-.76 2.3-2.3 2.3h-12.1c-1.53 0-2.3-.77-2.3-2.3V72.72c0-1.54.77-2.3 2.3-2.3h12.1c1.53 0 2.3.76 2.3 2.3v3.89c0 .38.1.62.3.72.18.1.38 0 .57-.29 4.03-5.18 9.93-7.78 17.7-7.78zm65.94 61.78c3.56-.1 6.63-.82 9.22-2.16a17.92 17.92 0 0 0 6.48-5.76c.48-.77 1.1-1.15 1.87-1.15.48 0 .91.14 1.3.43l6.9 5.47c.68.67 1.02 1.3 1.02 1.87 0 .39-.15.82-.44 1.3a28.95 28.95 0 0 1-11.37 10.37c-4.8 2.5-10.32 3.74-16.56 3.74-7.59 0-13.97-1.77-19.15-5.33-5.1-3.64-8.79-8.68-11.1-15.12-1.91-5.28-2.87-11.23-2.87-17.85 0-6.63.53-11.71 1.58-15.27 1.83-6.81 5.43-12.24 10.8-16.27 5.38-4.03 11.9-6.05 19.59-6.05 17.95 0 28.46 9.84 31.53 29.52.48 3.17.82 7.1 1.01 11.81 0 1.54-.77 2.3-2.3 2.3h-44.64c-.58 0-.87.3-.87.87 0 2.6.3 4.7.87 6.34a14.24 14.24 0 0 0 6.05 8.06c2.97 1.92 6.67 2.88 11.08 2.88zm-2.88-47.38c-3.64 0-6.67.92-9.07 2.74a13.17 13.17 0 0 0-4.75 7.34 21.1 21.1 0 0 0-1.15 6.05c-.1.58.14.87.72.87h28.94c.58 0 .87-.3.87-.87a43.4 43.4 0 0 0-.87-5.18c-.86-3.36-2.6-6-5.18-7.92-2.5-2.02-5.67-3.03-9.5-3.03z" fill="#969696"/><path d="M19.99 199.41c0 .39-.2.58-.58.58h-3.49c-.14 0-.22.07-.22.21v8.5c0 .94.2 1.6.58 2.02.4.4 1.04.6 1.9.6h.94c.39 0 .58.2.58.58v2.42c0 .38-.2.58-.58.6l-1.72.04c-1.9 0-3.32-.32-4.25-.97-.94-.67-1.42-1.9-1.44-3.7V200.2c0-.14-.07-.21-.22-.21H9.62c-.38 0-.58-.2-.58-.58v-2.23c0-.38.2-.58.58-.58h1.87c.15 0 .22-.07.22-.21v-4.03c0-.39.19-.58.57-.58h2.85c.38 0 .57.2.57.58v4.03c0 .14.08.21.22.21h3.5c.38 0 .57.2.57.58v2.23zm13.25-3.1c1.96 0 3.52.58 4.68 1.73 1.17 1.16 1.76 2.73 1.76 4.72v11.66c0 .39-.2.58-.58.58h-3.02c-.38 0-.58-.2-.58-.58v-10.8c0-1.1-.32-1.99-.97-2.66a3.17 3.17 0 0 0-2.48-1.04c-1.03 0-1.87.33-2.52 1a3.76 3.76 0 0 0-.94 2.67v10.83c0 .39-.19.58-.57.58h-3.03c-.38 0-.57-.2-.57-.58v-24.04c0-.39.19-.58.57-.58h3.03c.38 0 .57.2.57.58v7.77c0 .1.03.16.07.18.05.03.1 0 .15-.07 1-1.3 2.48-1.94 4.43-1.94zm19.72 15.45c.9-.02 1.66-.2 2.3-.54a4.48 4.48 0 0 0 1.63-1.44c.12-.2.27-.29.46-.29.12 0 .23.04.33.11l1.73 1.37c.16.17.25.32.25.47 0 .1-.04.2-.1.32a7.24 7.24 0 0 1-2.85 2.6c-1.2.62-2.58.93-4.14.93-1.9 0-3.5-.45-4.8-1.33a7.7 7.7 0 0 1-2.76-3.78 13 13 0 0 1-.72-4.47c0-1.65.13-2.93.4-3.81a7.27 7.27 0 0 1 2.7-4.07 7.93 7.93 0 0 1 4.89-1.51c4.49 0 7.11 2.46 7.88 7.38.12.79.2 1.77.25 2.95 0 .38-.19.57-.57.57H48.68c-.15 0-.22.08-.22.22 0 .65.07 1.18.22 1.58.26.87.77 1.54 1.51 2.02s1.67.72 2.77.72zm-.72-11.84c-.9 0-1.67.22-2.27.68a3.3 3.3 0 0 0-1.18 1.84c-.17.48-.27.98-.3 1.5-.02.15.04.22.19.22h7.23c.15 0 .22-.07.22-.21-.1-.72-.17-1.15-.22-1.3a3.66 3.66 0 0 0-3.67-2.74zm28.88 11.84c.89-.02 1.66-.2 2.3-.54a4.48 4.48 0 0 0 1.63-1.44c.12-.2.27-.29.46-.29.12 0 .23.04.33.11l1.73 1.37c.16.17.25.32.25.47 0 .1-.04.2-.11.32a7.24 7.24 0 0 1-2.84 2.6c-1.2.62-2.58.93-4.14.93-1.9 0-3.5-.45-4.8-1.33a7.7 7.7 0 0 1-2.76-3.78 13 13 0 0 1-.72-4.47c0-1.65.13-2.93.4-3.81a7.27 7.27 0 0 1 2.7-4.07 7.93 7.93 0 0 1 4.89-1.51c4.49 0 7.11 2.46 7.88 7.38.12.79.2 1.77.25 2.95 0 .38-.19.57-.57.57H76.84c-.15 0-.22.08-.22.22 0 .65.07 1.18.22 1.58.26.87.77 1.54 1.51 2.02s1.67.72 2.77.72zm-.72-11.84c-.91 0-1.67.22-2.27.68a3.3 3.3 0 0 0-1.18 1.84c-.17.48-.27.98-.3 1.5-.02.15.04.22.19.22h7.23c.15 0 .22-.07.22-.21-.1-.72-.17-1.15-.22-1.3a3.66 3.66 0 0 0-3.67-2.74zM93.72 215c-.38 0-.57-.2-.57-.58v-24.04c0-.39.19-.58.57-.58h3.03c.38 0 .57.2.57.58v24.04c0 .39-.2.58-.57.58h-3.03zm17.1-3.24c.9-.02 1.66-.2 2.31-.54a4.48 4.48 0 0 0 1.62-1.44c.12-.2.28-.29.47-.29.12 0 .23.04.32.11l1.73 1.37c.17.17.25.32.25.47 0 .1-.03.2-.1.32a7.24 7.24 0 0 1-2.85 2.6c-1.2.62-2.58.93-4.14.93-1.9 0-3.5-.45-4.79-1.33a7.7 7.7 0 0 1-2.77-3.78 13 13 0 0 1-.72-4.47c0-1.65.13-2.93.4-3.81a7.27 7.27 0 0 1 2.7-4.07 7.93 7.93 0 0 1 4.9-1.51c4.48 0 7.1 2.46 7.88 7.38.12.79.2 1.77.25 2.95 0 .38-.2.57-.58.57h-11.16c-.14 0-.21.08-.21.22 0 .65.07 1.18.21 1.58.27.87.77 1.54 1.52 2.02.74.48 1.66.72 2.77.72zm-.71-11.84c-.92 0-1.67.22-2.27.68a3.3 3.3 0 0 0-1.19 1.84c-.17.48-.26.98-.29 1.5-.02.15.04.22.18.22h7.24c.14 0 .22-.07.22-.21-.1-.72-.17-1.15-.22-1.3a3.66 3.66 0 0 0-3.67-2.74zm20.37 15.37a8.17 8.17 0 0 1-4.78-1.4 7.47 7.47 0 0 1-2.81-3.86 13.23 13.23 0 0 1-.58-4.32c0-1.73.2-3.14.58-4.25a6.93 6.93 0 0 1 2.77-3.74 8.33 8.33 0 0 1 4.82-1.4c1.88 0 3.5.46 4.9 1.4a6.69 6.69 0 0 1 2.77 3.53c.07.21.14.55.22 1v.15c0 .26-.16.43-.47.5l-2.99.47h-.14c-.27 0-.44-.14-.5-.43l-.12-.47a3.02 3.02 0 0 0-1.25-1.8 3.9 3.9 0 0 0-2.42-.75c-.9 0-1.69.24-2.34.72a3.33 3.33 0 0 0-1.26 1.9 11.2 11.2 0 0 0-.36 3.2c0 1.33.11 2.4.33 3.21.24.84.67 1.51 1.3 2.02.62.48 1.4.72 2.33.72.92 0 1.7-.23 2.34-.69a3.2 3.2 0 0 0 1.3-1.87l.03-.18c.03-.12.1-.24.22-.36.14-.12.3-.17.47-.14l2.99.47c.3.07.46.24.46.5 0 .14-.04.43-.14.86a6.5 6.5 0 0 1-2.77 3.68 8.9 8.9 0 0 1-4.9 1.33zm21.94-15.88c0 .39-.2.58-.58.58h-3.5c-.14 0-.2.07-.2.21v8.5c0 .94.18 1.6.57 2.02.4.4 1.04.6 1.9.6h.94c.39 0 .58.2.58.58v2.42c0 .38-.2.58-.58.6l-1.73.04c-1.9 0-3.3-.32-4.24-.97-.94-.67-1.42-1.9-1.44-3.7V200.2c0-.14-.08-.21-.22-.21h-1.87c-.39 0-.58-.2-.58-.58v-2.23c0-.38.2-.58.58-.58h1.87c.14 0 .22-.07.22-.21v-4.03c0-.39.19-.58.57-.58h2.85c.38 0 .57.2.57.58v4.03c0 .14.07.21.22.21h3.49c.38 0 .58.2.58.58v2.23zm13-3.02c.69 0 1.33.13 1.9.4.29.14.4.38.33.71l-.58 3c-.03.18-.1.3-.22.35-.1.05-.25.05-.47 0a5.08 5.08 0 0 0-1.84-.1c-1 .04-1.84.4-2.51 1.07-.67.65-1 1.5-1 2.56v10.04c0 .39-.2.58-.59.58h-3.02c-.38 0-.57-.2-.57-.58v-17.24c0-.38.19-.58.57-.58h3.03c.38 0 .57.2.57.58v1.4c0 .1.02.16.07.18.05.03.1 0 .15-.1 1-1.52 2.4-2.27 4.17-2.27zm13.18 18.9a8.3 8.3 0 0 1-4.9-1.44 7.4 7.4 0 0 1-2.84-4c-.41-1.17-.62-2.54-.62-4.1 0-1.54.2-2.9.58-4.1a7.4 7.4 0 0 1 2.88-3.93 8.52 8.52 0 0 1 4.93-1.4c1.83 0 3.4.46 4.72 1.4a7.46 7.46 0 0 1 2.84 3.89c.43 1.15.65 2.52.65 4.1 0 1.51-.2 2.88-.61 4.1a7.84 7.84 0 0 1-2.85 4.04 8.02 8.02 0 0 1-4.78 1.44zm0-3.6a3.5 3.5 0 0 0 2.26-.76 4 4 0 0 0 1.37-2.12c.27-.77.4-1.78.4-3.03 0-1.17-.12-2.18-.36-3.02a3.74 3.74 0 0 0-1.4-2.09 3.7 3.7 0 0 0-2.35-.75 3.7 3.7 0 0 0-3.7 2.84 11.1 11.1 0 0 0-.36 3.02c0 1.18.12 2.19.36 3.03a4 4 0 0 0 1.36 2.12c.68.5 1.48.76 2.42.76zm21.73-15.37c1.96 0 3.52.57 4.68 1.72 1.17 1.16 1.76 2.73 1.76 4.72v11.66c0 .39-.2.58-.58.58h-3.02c-.38 0-.57-.2-.57-.58v-10.8c0-1.1-.33-1.99-.98-2.66a3.17 3.17 0 0 0-2.48-1.04c-1.03 0-1.87.33-2.52 1a3.76 3.76 0 0 0-.94 2.67v10.83c0 .39-.19.58-.57.58h-3.03c-.38 0-.57-.2-.57-.58v-17.24c0-.38.19-.58.57-.58h3.03c.38 0 .57.2.57.58v.97c0 .1.03.16.07.18.05.03.1 0 .15-.07 1-1.3 2.48-1.94 4.43-1.94zm13.85-2.02a2.7 2.7 0 0 1-1.94-.72c-.5-.5-.75-1.14-.75-1.9 0-.78.25-1.4.75-1.88a2.7 2.7 0 0 1 1.94-.72c.8 0 1.43.24 1.91.72.5.48.76 1.1.76 1.87s-.25 1.4-.76 1.91c-.48.48-1.11.72-1.9.72zm-1.5 20.7c-.4 0-.58-.2-.58-.58v-17.24c0-.38.19-.58.57-.58h3.03c.38 0 .57.2.57.58v17.24c0 .39-.19.58-.57.58h-3.03zm16.7.29a8.17 8.17 0 0 1-4.8-1.4 7.47 7.47 0 0 1-2.8-3.86 13.23 13.23 0 0 1-.58-4.32c0-1.73.2-3.14.58-4.25a6.93 6.93 0 0 1 2.77-3.74 8.33 8.33 0 0 1 4.82-1.4c1.88 0 3.5.46 4.9 1.4a6.69 6.69 0 0 1 2.77 3.53c.07.21.15.55.22 1v.15c0 .26-.16.43-.47.5l-2.99.47h-.14c-.27 0-.44-.14-.5-.43l-.12-.47a3.02 3.02 0 0 0-1.25-1.8 3.9 3.9 0 0 0-2.42-.75c-.9 0-1.69.24-2.34.72a3.33 3.33 0 0 0-1.26 1.9 11.2 11.2 0 0 0-.36 3.2c0 1.33.11 2.4.33 3.21.24.84.67 1.51 1.3 2.02.62.48 1.4.72 2.33.72.91 0 1.7-.23 2.34-.69a3.2 3.2 0 0 0 1.3-1.87l.03-.18c.03-.12.1-.24.22-.36.15-.12.3-.17.47-.14l2.99.47c.3.07.47.24.47.5 0 .14-.05.43-.15.86a6.5 6.5 0 0 1-2.77 3.68 8.9 8.9 0 0 1-4.9 1.33zm39.79-18.97c1.85 0 3.29.56 4.32 1.69 1.06 1.1 1.58 2.65 1.58 4.64v11.77c0 .39-.19.58-.57.58h-3c-.38 0-.57-.2-.57-.58v-10.9c0-1.1-.3-1.98-.9-2.63a2.97 2.97 0 0 0-2.34-.97 3.2 3.2 0 0 0-2.4.97 3.58 3.58 0 0 0-.94 2.59v10.94c0 .39-.2.58-.58.58h-2.99c-.38 0-.57-.2-.57-.58v-10.9c0-1.1-.3-1.98-.9-2.63-.6-.65-1.4-.97-2.38-.97a3.3 3.3 0 0 0-2.27.79 3.28 3.28 0 0 0-1 2.16v11.55c0 .39-.2.58-.58.58h-3.03c-.38 0-.57-.2-.57-.58v-17.24c0-.38.19-.58.57-.58h3.03c.38 0 .57.2.57.58v.97c0 .1.03.16.07.18.08.03.14-.01.19-.1 1.03-1.28 2.54-1.91 4.53-1.91 1.18 0 2.2.24 3.06.72a4.7 4.7 0 0 1 2.05 2.05c.05.07.1.1.15.1.07 0 .12-.04.14-.14.55-.91 1.3-1.6 2.23-2.05a6.97 6.97 0 0 1 3.1-.68zm21.75.86c0-.38.19-.58.57-.58h3c.38 0 .57.2.57.58v17.24c0 .39-.2.58-.58.58h-2.99c-.38 0-.57-.2-.57-.58v-.93c0-.1-.04-.16-.11-.18-.05-.03-.1.01-.14.1-.97 1.23-2.43 1.84-4.4 1.84a6.89 6.89 0 0 1-4.6-1.58c-1.23-1.06-1.84-2.56-1.84-4.5v-11.99c0-.38.2-.58.57-.58h3.03c.38 0 .57.2.57.58v10.8a4 4 0 0 0 .87 2.7c.6.67 1.43 1 2.48 1 1.08 0 1.95-.33 2.6-1 .64-.67.97-1.57.97-2.7v-10.8zm16.2 18.04c-1.51 0-2.85-.22-4-.65a6.38 6.38 0 0 1-2.63-1.84 4.15 4.15 0 0 1-.93-2.63v-.18c0-.38.19-.57.57-.57h2.88c.39 0 .58.08.58.25v.25c0 .6.32 1.13.97 1.59.67.43 1.51.64 2.52.64.96 0 1.74-.19 2.34-.57.6-.41.9-.91.9-1.51 0-.56-.25-.96-.75-1.23-.48-.29-1.28-.59-2.38-.9l-1.37-.43a20.24 20.24 0 0 1-3.1-1.15 6.28 6.28 0 0 1-2.12-1.66 4.24 4.24 0 0 1-.86-2.73c0-1.68.65-3.02 1.94-4 1.32-1 3.06-1.51 5.22-1.51a9.6 9.6 0 0 1 3.85.72c1.1.45 1.96 1.1 2.56 1.94.62.82.94 1.75.94 2.81 0 .12-.06.23-.18.32-.1.08-.23.11-.4.11h-2.77c-.39 0-.58-.07-.58-.21v-.22c0-.62-.31-1.14-.93-1.55a4.18 4.18 0 0 0-2.49-.65c-.93 0-1.7.18-2.3.54-.58.34-.87.82-.87 1.44 0 .58.28 1.02.83 1.34.55.28 1.48.6 2.77.97l.83.21c1.3.39 2.38.77 3.24 1.16.87.38 1.6.93 2.2 1.65.6.72.9 1.65.9 2.77 0 1.7-.67 3.05-2.02 4.04-1.34.96-3.13 1.44-5.36 1.44zm14-20.92a2.7 2.7 0 0 1-1.94-.72c-.5-.5-.75-1.14-.75-1.9 0-.78.25-1.4.75-1.88a2.7 2.7 0 0 1 1.95-.72c.79 0 1.43.24 1.9.72.5.48.76 1.1.76 1.87s-.25 1.4-.75 1.91c-.49.48-1.12.72-1.91.72zm-1.5 20.7c-.39 0-.58-.2-.58-.58v-17.24c0-.38.2-.58.57-.58h3.03c.38 0 .57.2.57.58v17.24c0 .39-.19.58-.57.58h-3.02zm16.7.29a8.17 8.17 0 0 1-4.8-1.4 7.47 7.47 0 0 1-2.8-3.86 13.23 13.23 0 0 1-.58-4.32c0-1.73.2-3.14.58-4.25a6.93 6.93 0 0 1 2.77-3.74 8.33 8.33 0 0 1 4.82-1.4c1.88 0 3.5.46 4.9 1.4a6.69 6.69 0 0 1 2.77 3.53c.07.21.15.55.22 1v.15c0 .26-.16.43-.47.5l-2.99.47h-.14c-.27 0-.43-.14-.5-.43l-.11-.47a3.02 3.02 0 0 0-1.26-1.8 3.9 3.9 0 0 0-2.42-.75c-.9 0-1.69.24-2.34.72a3.33 3.33 0 0 0-1.26 1.9 11.2 11.2 0 0 0-.36 3.2c0 1.33.11 2.4.33 3.21.24.84.67 1.51 1.3 2.02.62.48 1.4.72 2.33.72.92 0 1.7-.23 2.34-.69a3.2 3.2 0 0 0 1.3-1.87l.04-.18c.02-.12.1-.24.21-.36.15-.12.3-.17.47-.14l2.99.47c.31.07.47.24.47.5 0 .14-.05.43-.15.86a6.5 6.5 0 0 1-2.77 3.68 8.9 8.9 0 0 1-4.9 1.33zm20.71-.29c-.38 0-.58-.2-.58-.58v-24.04c0-.39.2-.58.58-.58h3.02c.39 0 .58.2.58.58v24.04c0 .39-.2.58-.58.58h-3.02zm17.1-3.24c.9-.02 1.66-.2 2.31-.54a4.48 4.48 0 0 0 1.62-1.44c.12-.2.28-.29.47-.29.12 0 .23.04.32.11l1.73 1.37c.17.17.25.32.25.47 0 .1-.03.2-.1.32a7.24 7.24 0 0 1-2.85 2.6c-1.2.62-2.58.93-4.14.93-1.9 0-3.5-.45-4.79-1.33a7.7 7.7 0 0 1-2.77-3.78 13 13 0 0 1-.72-4.47c0-1.65.13-2.93.4-3.81a7.27 7.27 0 0 1 2.7-4.07 7.93 7.93 0 0 1 4.9-1.51c4.48 0 7.1 2.46 7.88 7.38.12.79.2 1.77.25 2.95 0 .38-.2.57-.58.57h-11.16c-.14 0-.21.08-.21.22 0 .65.07 1.18.21 1.58.27.87.77 1.54 1.51 2.02.75.48 1.67.72 2.78.72zm-.71-11.84c-.92 0-1.67.22-2.27.68a3.3 3.3 0 0 0-1.19 1.84c-.17.48-.26.98-.29 1.5-.02.15.04.22.18.22h7.24c.14 0 .21-.07.21-.21-.1-.72-.16-1.15-.21-1.3a3.66 3.66 0 0 0-3.67-2.74zm19.72-3.6a9.5 9.5 0 0 1 4 .79 6.19 6.19 0 0 1 2.7 2.2c.62.9.94 1.95.94 3.13v11.98c0 .39-.2.58-.58.58h-3.02c-.39 0-.58-.2-.58-.58v-.9c0-.1-.02-.14-.07-.14-.05-.02-.11-.01-.18.04-1.3 1.24-3.03 1.87-5.19 1.87a6.86 6.86 0 0 1-4.39-1.37c-1.13-.91-1.69-2.27-1.69-4.07 0-1.87.65-3.32 1.94-4.35 1.32-1.06 3.17-1.59 5.55-1.59h3.81c.15 0 .22-.07.22-.21v-.83c0-.94-.29-1.66-.86-2.16-.56-.53-1.38-.8-2.49-.8a4.2 4.2 0 0 0-2.09.47c-.55.3-.92.7-1.11 1.23-.1.33-.31.49-.65.47l-3.24-.4a.91.91 0 0 1-.43-.14.34.34 0 0 1-.11-.33c.22-1.44 1-2.61 2.38-3.53a9.2 9.2 0 0 1 5.14-1.36zm-.82 15.66c1.17 0 2.18-.32 3.02-.94a2.85 2.85 0 0 0 1.26-2.38v-1.65c0-.15-.07-.22-.22-.22h-2.98c-1.28 0-2.28.24-3.03.72a2.3 2.3 0 0 0-1.11 2.05c0 .77.28 1.37.86 1.8.58.41 1.3.62 2.2.62zm21.9-15.6c.7 0 1.33.14 1.9.4.3.15.4.39.33.72l-.57 3c-.03.18-.1.3-.22.35-.1.05-.25.05-.47 0a5.08 5.08 0 0 0-1.84-.1c-1 .04-1.84.4-2.51 1.07-.67.65-1.01 1.5-1.01 2.56v10.04c0 .39-.2.58-.58.58h-3.02c-.38 0-.58-.2-.58-.58v-17.24c0-.38.2-.58.58-.58h3.02c.39 0 .58.2.58.58v1.4c0 .1.02.16.07.18.05.03.1 0 .15-.1 1-1.52 2.4-2.27 4.17-2.27zm14.5-.06c1.98 0 3.54.57 4.69 1.72 1.17 1.16 1.76 2.73 1.76 4.72v11.66c0 .39-.19.58-.57.58h-3.03c-.38 0-.57-.2-.57-.58v-10.8c0-1.1-.33-1.99-.98-2.66a3.17 3.17 0 0 0-2.48-1.04c-1.03 0-1.87.33-2.52 1a3.76 3.76 0 0 0-.94 2.67v10.83c0 .39-.19.58-.57.58h-3.03c-.38 0-.57-.2-.57-.58v-17.24c0-.38.19-.58.57-.58h3.03c.38 0 .57.2.57.58v.97c0 .1.03.16.08.18.04.03.1 0 .14-.07 1-1.3 2.48-1.94 4.43-1.94zm13.87-2.02a2.7 2.7 0 0 1-1.95-.72c-.5-.5-.75-1.14-.75-1.9 0-.78.25-1.4.75-1.88a2.7 2.7 0 0 1 1.95-.72c.79 0 1.42.24 1.9.72.5.48.76 1.1.76 1.87s-.25 1.4-.76 1.91c-.48.48-1.11.72-1.9.72zm-1.52 20.7c-.38 0-.57-.2-.57-.58v-17.24c0-.38.19-.58.57-.58h3.03c.38 0 .57.2.57.58v17.24c0 .39-.19.58-.57.58h-3.03zm17.86-18.68c1.96 0 3.52.57 4.68 1.72 1.17 1.16 1.76 2.73 1.76 4.72v11.66c0 .39-.2.58-.58.58h-3.02c-.38 0-.58-.2-.58-.58v-10.8c0-1.1-.32-1.99-.97-2.66a3.17 3.17 0 0 0-2.48-1.04c-1.03 0-1.87.33-2.52 1a3.76 3.76 0 0 0-.94 2.67v10.83c0 .39-.19.58-.57.58h-3.03c-.38 0-.57-.2-.57-.58v-17.24c0-.38.19-.58.57-.58h3.03c.38 0 .57.2.57.58v.97c0 .1.03.16.07.18.05.03.1 0 .15-.07 1-1.3 2.48-1.94 4.43-1.94zm22.75.86c0-.38.19-.58.57-.58h3.03c.38 0 .57.2.57.58v16.6c0 3-.86 5.14-2.59 6.44-1.73 1.3-3.98 1.94-6.77 1.94-.67 0-1.35-.03-2.05-.1-.34-.03-.5-.24-.5-.65l.1-2.67c0-.16.06-.3.18-.4a.6.6 0 0 1 .47-.1c.82.05 1.38.07 1.7.07 1.82 0 3.15-.36 3.99-1.08.86-.7 1.3-1.88 1.3-3.56v-.22c0-.1-.03-.15-.08-.18-.04-.02-.1 0-.18.07-.98 1.04-2.36 1.55-4.14 1.55-1.56 0-2.98-.4-4.28-1.19-1.3-.79-2.2-2-2.7-3.63a16.75 16.75 0 0 1-.47-4.36c0-1.99.2-3.51.58-4.57a6.86 6.86 0 0 1 6.62-4.82c1.85 0 3.31.54 4.4 1.62.07.07.13.1.17.07.05-.03.08-.09.08-.18v-.65zm-.26 11.7c.1-.36.16-.74.18-1.15.05-.43.08-1.12.08-2.05 0-.92-.03-1.56-.08-1.95-.02-.4-.1-.8-.21-1.19a3.37 3.37 0 0 0-3.42-2.63c-.87 0-1.6.25-2.2.73a4 4 0 0 0-1.3 1.9 8.58 8.58 0 0 0-.43 3.17c0 1.49.12 2.53.36 3.13.24.77.68 1.4 1.3 1.91.65.48 1.42.72 2.3.72.94 0 1.7-.24 2.27-.72.58-.48.96-1.1 1.15-1.87zm33.02-7.52c.43 1.32.64 2.82.64 4.5 0 1.7-.2 3.16-.6 4.39a7.45 7.45 0 0 1-2.56 3.7 7.08 7.08 0 0 1-4.4 1.34 5.26 5.26 0 0 1-4.1-1.77c-.05-.07-.1-.1-.18-.07-.05 0-.07.05-.07.15v7.63c0 .38-.2.57-.58.57h-3.02c-.39 0-.58-.19-.58-.57v-24.05c0-.38.2-.58.58-.58h3.02c.39 0 .58.2.58.58v.94c0 .1.02.15.07.18.07.02.13-.02.18-.11a5.06 5.06 0 0 1 4.1-1.87c1.68 0 3.12.45 4.32 1.36a7.36 7.36 0 0 1 2.6 3.68zm-4.72 8.82c.7-1.06 1.04-2.52 1.04-4.4 0-1.72-.28-3.1-.86-4.1a3.19 3.19 0 0 0-3.02-1.73c-1.2 0-2.14.57-2.81 1.7-.55.93-.83 2.32-.83 4.17 0 1.87.3 3.3.9 4.28a3.02 3.02 0 0 0 2.7 1.59c1.25 0 2.2-.5 2.88-1.51zm10.4 4.82c-.4 0-.58-.2-.58-.58v-24.04c0-.39.19-.58.57-.58h3.03c.38 0 .57.2.57.58v24.04c0 .39-.19.58-.57.58h-3.03zM536 196.32a9.5 9.5 0 0 1 4 .79 6.19 6.19 0 0 1 2.7 2.2c.62.9.93 1.95.93 3.13v11.98c0 .39-.2.58-.58.58h-3.02c-.39 0-.58-.2-.58-.58v-.9c0-.1-.02-.14-.07-.14-.05-.02-.1-.01-.18.04-1.3 1.24-3.03 1.87-5.19 1.87a6.86 6.86 0 0 1-4.39-1.37c-1.13-.91-1.69-2.27-1.69-4.07 0-1.87.65-3.32 1.95-4.35 1.32-1.06 3.16-1.59 5.54-1.59h3.82c.14 0 .21-.07.21-.21v-.83c0-.94-.29-1.66-.86-2.16-.56-.53-1.38-.8-2.49-.8a4.2 4.2 0 0 0-2.09.47c-.55.3-.92.7-1.11 1.23-.1.33-.31.49-.65.47l-3.24-.4a.91.91 0 0 1-.43-.14.34.34 0 0 1-.1-.33c.2-1.44 1-2.61 2.37-3.53a9.2 9.2 0 0 1 5.14-1.36zm-.83 15.66c1.17 0 2.18-.32 3.02-.94a2.85 2.85 0 0 0 1.26-2.38v-1.65c0-.15-.07-.22-.22-.22h-2.98c-1.27 0-2.28.24-3.03.72a2.3 2.3 0 0 0-1.11 2.05c0 .77.28 1.37.86 1.8.58.41 1.3.62 2.2.62zm22.8-12.57c0 .39-.18.58-.57.58h-3.49c-.14 0-.22.07-.22.21v8.5c0 .94.2 1.6.58 2.02.4.4 1.04.6 1.9.6h.94c.39 0 .58.2.58.58v2.42c0 .38-.2.58-.58.6l-1.72.04c-1.9 0-3.32-.32-4.25-.97-.94-.67-1.42-1.9-1.44-3.7V200.2c0-.14-.07-.21-.22-.21h-1.87c-.38 0-.58-.2-.58-.58v-2.23c0-.38.2-.58.58-.58h1.87c.15 0 .22-.07.22-.21v-4.03c0-.39.19-.58.57-.58h2.85c.38 0 .57.2.57.58v4.03c0 .14.08.21.22.21h3.5c.38 0 .57.2.57.58v2.23zm13.87-2.84c.38 0 .57.19.57.57v2.56c0 .38-.19.58-.57.58h-3.38c-.15 0-.22.07-.22.21v13.93c0 .39-.2.58-.58.58h-3.02c-.38 0-.58-.2-.58-.58V200.5c0-.14-.07-.21-.21-.21h-2.06c-.38 0-.57-.2-.57-.58v-2.56c0-.38.2-.57.57-.57h2.06c.14 0 .21-.07.21-.22v-.61c0-1.56.2-2.76.62-3.6a3.54 3.54 0 0 1 2.01-1.84 11 11 0 0 1 3.96-.5h1.12c.38 0 .57.2.57.58v2.23c0 .38-.19.57-.57.57h-.8c-1.03 0-1.75.2-2.15.62-.39.4-.58 1.15-.58 2.23v.32c0 .15.07.22.22.22h3.38zm11.37 18.72a8.3 8.3 0 0 1-4.9-1.44 7.4 7.4 0 0 1-2.84-4c-.4-1.17-.61-2.54-.61-4.1 0-1.54.19-2.9.57-4.1a7.4 7.4 0 0 1 2.88-3.93 8.52 8.52 0 0 1 4.94-1.4c1.82 0 3.4.46 4.71 1.4a7.46 7.46 0 0 1 2.85 3.89c.43 1.15.64 2.52.64 4.1 0 1.51-.2 2.88-.6 4.1a7.84 7.84 0 0 1-2.85 4.04 8.02 8.02 0 0 1-4.79 1.44zm0-3.6a3.5 3.5 0 0 0 2.27-.76 4 4 0 0 0 1.37-2.12c.26-.77.4-1.78.4-3.03 0-1.17-.13-2.18-.37-3.02a3.74 3.74 0 0 0-1.4-2.09 3.7 3.7 0 0 0-2.34-.75 3.7 3.7 0 0 0-3.71 2.84 11.1 11.1 0 0 0-.36 3.02c0 1.18.12 2.19.36 3.03a4 4 0 0 0 1.37 2.12c.67.5 1.47.76 2.41.76zm21.48-15.3c.7 0 1.33.13 1.9.4.3.14.4.38.33.71l-.57 3c-.03.18-.1.3-.22.35-.1.05-.25.05-.47 0a5.08 5.08 0 0 0-1.84-.1c-1 .04-1.84.4-2.51 1.07-.68.65-1.01 1.5-1.01 2.56v10.04c0 .39-.2.58-.58.58h-3.02c-.39 0-.58-.2-.58-.58v-17.24c0-.38.2-.58.58-.58h3.02c.38 0 .58.2.58.58v1.4c0 .1.02.16.07.18.05.03.1 0 .14-.1 1.01-1.52 2.4-2.27 4.18-2.27zm25.38-.07c1.85 0 3.29.56 4.32 1.69 1.05 1.1 1.58 2.65 1.58 4.64v11.77c0 .39-.19.58-.57.58h-3c-.38 0-.57-.2-.57-.58v-10.9c0-1.1-.3-1.98-.9-2.63a2.97 2.97 0 0 0-2.34-.97 3.2 3.2 0 0 0-2.41.97 3.58 3.58 0 0 0-.94 2.59v10.94c0 .39-.19.58-.57.58h-2.99c-.38 0-.58-.2-.58-.58v-10.9c0-1.1-.3-1.98-.9-2.63-.6-.65-1.39-.97-2.37-.97a3.3 3.3 0 0 0-2.27.79 3.28 3.28 0 0 0-1 2.16v11.55c0 .39-.2.58-.58.58h-3.03c-.38 0-.57-.2-.57-.58v-17.24c0-.38.19-.58.57-.58h3.03c.38 0 .57.2.57.58v.97c0 .1.03.16.07.18.08.03.14-.01.18-.1 1.04-1.28 2.55-1.91 4.54-1.91 1.18 0 2.2.24 3.06.72a4.7 4.7 0 0 1 2.05 2.05c.05.07.1.1.15.1.07 0 .12-.04.14-.14.55-.91 1.3-1.6 2.23-2.05a6.97 6.97 0 0 1 3.1-.68z" fill="#BABABA"/></svg>